<svg xmlns="http://www.w3.org/2000/svg" width="118" height="133" viewBox="0 0 118 133" fill="none">
  <path d="M68.5125 112.542C64.8866 107.259 65.6502 100.374 70.2122 97.1601C74.7742 93.954 81.4234 95.6269 85.0492 100.913C88.6789 106.188 87.9154 113.078 83.3495 116.288C78.7875 119.498 72.1383 117.821 68.5125 112.542Z" fill="#FFDC5D"/>
  <path d="M71.2597 119.054C71.2597 119.054 74.1374 121.934 69.8324 125.532C66.2834 128.498 62.4197 125.035 58.6711 125.462C55.8433 125.785 53.4645 127.403 52.5935 129.678C52.5935 129.678 52.9465 125.327 54.7575 122.489C57.1095 118.806 61.7674 116.834 64.4263 116.52C68.5739 116.035 71.2597 119.054 71.2597 119.054Z" fill="#FFAC33"/>
  <path d="M71.2677 91.1858L78.4465 104.732C79.4594 106.618 78.7611 109.106 76.9117 110.104C75.0547 111.128 72.7296 110.48 71.7167 108.594L65.0022 96.0958L56.2503 102.252L54.5775 93.9687C54.0326 93.1148 75.1967 83.4502 76.6201 81.8433C76.624 81.8471 78.5079 86.9939 71.2677 91.1858Z" fill="#FFDC5D"/>
  <path d="M92.7755 79.1031L76.1198 79.2312C74.14 79.2467 72.5362 80.8924 72.5477 82.8913C72.563 84.8903 74.1975 86.5204 76.1735 86.501L92.8331 86.3807C94.8129 86.3652 96.4167 84.7156 96.4052 82.7167C96.386 80.7178 94.7553 79.0914 92.7755 79.1031Z" fill="#FFDC5D"/>
  <path d="M108.103 85.092C105.253 84.5137 95.9098 79.4446 93.6308 79.3281C91.3517 79.2117 90.5651 80.0617 89.9282 81.9636C89.2913 83.85 90.7838 84.863 93.861 87.0521C96.9381 89.2412 105.03 89.0122 106.853 89.4741C107.37 89.6061 108.38 90.9684 109.358 91.4342C111.296 92.358 112.554 91.1586 113.69 91.2052C115.386 91.2751 116.606 92.0164 116.882 91.2052L117.45 90.1689C117.906 88.5542 115.643 87.2462 113.348 85.7868C112.186 85.0454 109.063 85.2861 108.103 85.092Z" fill="#FFDC5D"/>
  <path d="M85.0491 100.913C85.0491 100.913 87.4241 102.446 89.4806 104.095C91.8288 105.986 91.8364 111.206 90.3823 115.185C89.2427 118.286 84.0707 122.738 78.9255 123.374C73.1088 124.092 69.1761 120.661 66.9315 115.86C64.8673 111.447 66.0951 105.462 66.0951 105.462C66.0951 105.462 69.7286 107.938 69.1837 108.419C68.1708 109.308 69.859 113.17 71.3938 113.43C73.0091 113.706 73.2815 112.099 72.8633 110.981C72.4412 109.859 71.2134 106.696 71.2134 106.696C71.2134 106.696 73.4043 110.244 75.0886 110.655C76.773 111.066 81.0933 107.674 86.1886 111.004C86.1886 111.004 87.2744 109.39 87.2284 106.766C87.1862 104.604 85.0491 100.913 85.0491 100.913Z" fill="#FFAC33"/>
  <path d="M70.6038 30.2594C69.9592 32.2157 67.8106 34.0089 67.1123 34.6959C63.9584 37.8126 57.8463 43.9142 54.8574 46.0994L64.9176 54.4444C67.1085 52.3213 70.6882 47.7723 73.7769 43.8637C75.6186 41.5349 77.5216 40.3433 78.665 36.8151C78.665 36.8151 81.228 23.4592 85.0725 13.4413C86.3003 10.2392 80.0693 7.98798 78.665 10.6545C77.2722 13.2977 75.5035 17.0743 74.5865 19.5623C73.9649 21.2662 70.8954 29.3745 70.6038 30.2594Z" fill="#FFDC5D"/>
  <path d="M78.0175 5.41469C77.8065 6.05124 77.2425 8.35679 77.2425 9.23398L76.3217 14.4622C76.2679 14.7223 76.4444 14.9746 76.7015 15.0134C77.4574 15.1337 79.9014 14.6873 81.4016 16.0691C82.4069 16.9929 82.522 18.6425 83.1014 18.8948C83.2855 18.9724 83.4927 18.8754 83.5579 18.6852C83.5579 18.6852 83.7421 17.7304 83.98 16.9153C84.4788 16.271 85.0658 14.9746 85.9713 14.4545C86.5085 14.3613 87.0878 13.8684 88.5036 13.7791C89.3439 13.7248 93.1999 13.4492 93.1999 13.4492C94.1783 13.3948 94.4853 13.0882 95.0109 13.0533C96.0929 12.9757 98.9245 13.061 99.8453 12.9873C100.762 12.9174 101.28 12.3469 101.468 11.8539C101.652 11.3649 101.603 11.0466 101.603 11.0466C101.603 11.0466 100.709 9.48239 95.479 7.33598C92.4095 6.07841 79.4065 3.16736 79.4065 3.16736L78.9192 3.5555C78.4396 3.94364 78.2401 4.74709 78.0175 5.41469Z" fill="#BE1931"/>
  <path d="M85.7145 15.2188C85.6876 15.3275 85.6339 15.4323 85.5572 15.5216C85.304 15.801 84.8781 15.8243 84.6018 15.5681L83.7232 14.7608C83.4431 14.5046 83.4316 14.066 83.6771 13.7943C83.9304 13.5149 84.3563 13.4916 84.6325 13.7478L85.5111 14.5551C85.6991 14.7259 85.7682 14.982 85.7145 15.2188Z" fill="#CCD6DD"/>
  <path d="M86.0278 5.96235C85.5175 6.69205 83.8945 8.25626 82.4787 8.46974C81.2049 8.66381 77.9742 8.24073 77.3604 8.15922C77.4985 7.15006 77.9129 5.6402 78.0702 5.16278C78.2812 4.534 78.5728 3.70726 79.0486 3.35017C79.0984 3.31524 84.2858 5.3685 86.0278 5.96235Z" fill="#DD2E44"/>
  <path d="M78.9752 3.3461C78.9752 3.3461 79.5124 3.48195 79.8232 3.82351C80.1339 4.16896 81.0049 4.56098 81.6687 4.7861C82.3324 5.01122 84.8149 5.90394 86.622 6.25715C88.4292 6.61036 91.7979 6.80831 92.8876 7.03731C93.9773 7.26631 95.6501 7.6855 96.8434 8.20949C98.0328 8.73348 99.0879 9.24194 99.7248 9.59515C100.55 10.0454 101.191 10.5461 101.609 11.0468C101.609 11.0468 101.843 9.59127 100.001 8.00378C98.5431 6.75009 97.0659 5.8923 95.5542 5.3489C95.4391 5.30621 91.3912 3.96324 89.3654 3.29952C87.8844 2.81823 85.5247 2.03031 85.5247 2.03031C82.7315 1.07937 81.2927 0.671819 80.7171 0.667937C80.6135 0.667937 80.2068 0.590309 79.7157 0.803786C79.3934 0.939635 78.6184 3.22578 78.9752 3.3461ZM87.8805 14.1597C87.823 14.4081 87.6311 14.6099 87.3664 14.672C87.0019 14.7535 86.6412 14.5206 86.5606 14.1519L86.3036 12.9797C86.2268 12.6032 86.4532 12.2461 86.8177 12.1608C87.1822 12.0792 87.5429 12.3121 87.6235 12.6809L87.8805 13.853C87.9074 13.9578 87.9035 14.0626 87.8805 14.1597ZM90.2517 13.7793C90.1865 14.0626 89.9447 14.2839 89.6416 14.3072C89.2695 14.3305 88.9433 14.0471 88.9203 13.6706L88.8321 12.4053C88.8052 12.0133 89.0853 11.6989 89.4613 11.6717C89.8335 11.6484 90.1558 11.9318 90.1826 12.3082L90.2709 13.5736C90.2709 13.6473 90.267 13.7133 90.2517 13.7793ZM92.6612 13.5425C92.5883 13.8569 92.3006 14.0859 91.9706 14.0665C91.5984 14.051 91.3107 13.7288 91.3298 13.3485L91.3874 12.1879C91.4143 11.7843 91.725 11.5203 92.0972 11.5397C92.4694 11.5553 92.7571 11.8774 92.738 12.2578L92.6804 13.4183C92.6766 13.4649 92.6727 13.5037 92.6612 13.5425Z" fill="#CCD6DD"/>
  <path d="M27.9402 34.3972C29.9661 36.8308 36.0743 41.1741 36.7496 41.8844C40.0416 45.3272 43.7096 47.4231 46.1959 50.7145L37.1371 60.1619C34.7199 58.3066 32.2912 55.2985 28.7805 51.7742C26.6894 49.6743 22.653 41.8067 20.186 39.2062C20.186 39.2062 14.4269 31.979 9.47733 22.4696C7.89655 19.4305 13.2835 16.9774 15.5319 18.9647C17.9376 21.0917 20.8804 24.5539 23.1211 27.1273C24.3029 28.4858 27.3455 33.683 27.9402 34.3972Z" fill="#FFDC5D"/>
  <path d="M1.72335 2.68164C4.48588 -0.986276 10.6594 0.671081 12.3207 5.37922C13.4372 8.54644 13.4909 13.5146 15.041 15.0788C16.5873 16.6469 17.1782 19.0922 17.205 19.9073C17.2319 20.7224 16.3379 21.2891 15.5053 20.5011C15.5053 20.5011 17.7575 22.9581 15.2022 23.2531C12.6507 23.5442 14.3849 25.217 12.7121 24.7978C11.0392 24.3787 11.2886 23.1288 11.2886 23.1288C11.2886 23.1288 11.3001 26.1447 10.0685 24.8483C8.83686 23.548 2.78232 14.6014 1.4471 10.425C0.572301 7.68477 -0.290988 5.35593 1.72335 2.68164Z" fill="#CCD6DD"/>
  <path d="M2.65902 3.57114C5.26807 -0.209339 11.1231 2.725 12.0286 5.9582C12.9341 9.19141 13.1605 13.395 14.7105 14.9592C16.2568 16.5234 18.3364 19.5431 18.3594 20.3582C18.3862 21.1733 17.1776 21.7322 16.345 20.9443C16.345 20.9443 19.0385 23.5681 16.4832 23.8592C13.9278 24.1503 14.5954 26.4287 12.9226 26.0095C11.2497 25.5903 10.9581 23.0053 10.9581 23.0053C10.9581 23.0053 10.9696 26.0212 9.738 24.7248C8.50637 23.4245 3.44557 15.1998 2.18709 11.0001C0.928607 6.80047 1.43123 5.34882 2.65902 3.57114Z" fill="#BE1931"/>
  <path d="M9.90941 20.4827C9.74059 20.6729 9.68688 20.9485 9.78664 21.2008C9.9286 21.5501 10.3238 21.717 10.6691 21.5734L15.1198 19.264C15.469 19.1126 15.6301 18.7206 15.4882 18.3674C15.3462 18.0181 14.951 17.8512 14.6057 17.9948L10.155 20.3042C10.059 20.3508 9.97848 20.409 9.90941 20.4827ZM8.39386 17.4591C8.22504 17.6493 8.17133 17.9249 8.27108 18.1772C8.41305 18.5265 8.80824 18.6934 9.15356 18.5498L13.3357 16.6867C13.6849 16.5354 13.846 16.1433 13.704 15.7901C13.5621 15.4408 13.1669 15.2739 12.8216 15.4175L8.63942 17.2806C8.5435 17.3272 8.45909 17.3854 8.39386 17.4591ZM7.17375 14.5985C6.94737 14.781 6.85529 15.0954 6.96272 15.3826C7.10085 15.7358 7.4922 15.9105 7.83752 15.7707L11.5746 14.1599C11.9353 14.0163 12.0964 13.6282 11.9621 13.2711C11.8278 12.9218 11.4365 12.7471 11.0873 12.8868L7.35024 14.4976C7.28118 14.5209 7.22362 14.5558 7.17375 14.5985ZM6.23756 11.8932C5.95747 12.0523 5.82702 12.3978 5.93445 12.7122C6.05723 13.0693 6.44475 13.2556 6.7939 13.1314L10.3775 11.7768C10.7535 11.637 10.9147 11.2605 10.7919 10.9035C10.6691 10.5464 10.2816 10.3601 9.93243 10.4843L6.34882 11.8428C6.30662 11.8544 6.27209 11.8738 6.23756 11.8932Z" fill="#CCD6DD"/>
  <path d="M45.5497 70.1336C45.5497 70.1336 38.958 66.0077 36.2684 63.9156C33.5864 61.8235 27.3784 52.5004 27.3784 52.5004C27.3784 52.5004 34.9945 44.5397 39.1729 41.78L49.0873 49.2168L58.2611 40.5923C58.2611 40.5923 67.8149 44.4388 70.4546 48.8946C70.4546 48.8946 66.1228 56.0441 64.7569 58.3497C64.6917 60.1274 64.7876 62.3825 65.6701 62.4989L45.5497 70.1336Z" fill="#A0041E"/>
  <path d="M45.7217 109.41L52.724 94.1208C53.5489 92.3043 55.6937 91.5086 57.4893 92.3431C59.2811 93.1854 60.0754 95.3629 59.2428 97.1755L52.252 112.472C51.4194 114.289 49.2746 115.088 47.4752 114.246C45.6834 113.404 44.8968 111.23 45.7217 109.41Z" fill="#FFDC5D"/>
  <path d="M43.7117 128.672C43.7117 128.672 44.8513 115.029 45.1927 112.417C45.5342 109.805 47.491 107.771 49.467 107.969C51.4276 108.159 52.3446 109.642 52.6017 112.995C52.8588 116.345 48.9222 125.439 49.2751 128.991C49.3903 130.143 52.8588 131.129 51.8957 131.874C51.4698 132.204 48.6229 132.511 48.0205 132.449L45.8565 132.565C44.8896 132.468 42.4494 132.686 41.8662 131.987C41.26 131.257 43.6081 129.685 43.7117 128.672Z" fill="#FFDC5D"/>
  <path d="M60.4219 100.082C60.4219 100.082 62.6012 98.3509 64.1781 97.0701C64.1781 97.0701 62.6089 94.2716 66.5378 91.3295C70.4706 88.3874 73.0144 89.7925 73.0144 89.7925C73.0144 89.7925 73.9007 90.1418 76.997 89.1986C78.4665 88.7522 81.3979 88.007 81.3979 88.007C81.3979 88.007 81.2406 81.7308 80.3735 77.9115L72.8878 77.6126C72.8878 77.6126 72.1089 73.9486 70.8581 72.8773C69.5996 71.8138 68.8514 70.8978 67.8999 69.7955C65.2486 66.7253 65.5978 60.484 65.3369 59.0751C65.3369 59.0751 56.0978 62.7857 49.4178 64.6876C44.2458 66.1625 36.7908 64.7807 36.7908 64.7807C38.6363 67.323 42.7302 70.1603 45.5081 73.2538C48.2207 76.2697 54.2753 92.3348 52.5986 94.225C50.918 96.1153 48.5238 100.183 48.5238 100.183C48.5238 100.183 50.8835 101.926 52.4835 103.296C54.7242 105.209 56.5965 105.675 56.5965 105.675C56.5965 105.675 59.0713 101.398 60.4219 100.082Z" fill="#DD2E44"/>
</svg>